<svg width="106" height="70" viewBox="0 0 106 70" fill="none" xmlns="http://www.w3.org/2000/svg"><path d="M48.9 70H1V59.92l17.2-17.39c5.1-5.22 8.43-8.83 9.99-10.83a24.28 24.28 0 0 0 3.37-5.62c.69-1.72 1.03-3.5 1.03-5.35 0-2.75-.76-4.8-2.3-6.14-1.5-1.34-3.5-2.01-6.04-2.01-2.66 0-5.23.6-7.73 1.83a39.92 39.92 0 0 0-7.83 5.2L.8 10.28c3.38-2.87 6.17-4.9 8.4-6.1a30.1 30.1 0 0 1 7.26-2.71C19.09.8 22.03.48 25.28.48c4.28 0 8.06.79 11.34 2.35a18.1 18.1 0 0 1 7.65 6.56 17.43 17.43 0 0 1 2.71 9.66c0 3.15-.56 6.12-1.68 8.9a33.36 33.36 0 0 1-5.16 8.49c-2.31 2.9-6.4 7.04-12.28 12.42l-8.81 8.3v.65H48.9V70Zm56.4-14.2h-8.25V70H82.89V55.8H53.64V45.72L83.7 1.47h13.36v43.08h8.25V55.8ZM82.9 44.55V32.92c0-1.94.07-4.75.22-8.44.16-3.68.29-5.82.38-6.42h-.38a52.27 52.27 0 0 1-4.17 7.5L66.4 44.55h16.5Z" fill="#D22856"/></svg>